# xmcd
#
# Track frame offsets:
#	150
#	13057
#	28228
#	41429
#	54263
#	70716
#	83295
#	99462
#	111893
#	127451
#	141450
#	157090
#	171367
#	183904
#	197905
#
# Disc length: 2827 seconds
#
# Revision: 1
# Processed by: cddbd v1.5.1PL0 Copyright (c) Steve Scherf et al.
# Submitted via: audiograbber 1.83.01
#
DISCID=d20b090f
DTITLE=San Marino - Copo de Cerveja
DYEAR=2005
DGENRE=Bailão
TTITLE0=Dois Apaixonados (1 mais 1)
TTITLE1=Tome um Copo de Cerveja
TTITLE2=Não Vá Embora
TTITLE3=Mentira
TTITLE4=Fogo e Paixão
TTITLE5=Enfermeira
TTITLE6=Dê Mais Valor Para Mim
TTITLE7=Você Não Vale Nada
TTITLE8=Linda Garçonete
TTITLE9=Página Virada
TTITLE10=Aquela Camiseta
TTITLE11=Me Disse Adeus
TTITLE12=Fugido Pro Bailão
TTITLE13=Não Te Quero Mais
TTITLE14=Quando o Baile Acabar
EXTD=
EXTT0=
EXTT1=
EXTT2=
EXTT3=
EXTT4=
EXTT5=
EXTT6=
EXTT7=
EXTT8=
EXTT9=
EXTT10=
EXTT11=
EXTT12=
EXTT13=
EXTT14=
PLAYORDER=
